<svg width="582" height="284" viewBox="0 0 582 284" fill="none" xmlns="http://www.w3.org/2000/svg">
<path d="M215.72 213.125C201.735 199.14 192.211 181.322 188.352 161.924C184.494 142.526 186.474 122.42 194.043 104.147C201.612 85.8748 214.429 70.257 230.874 59.269C247.318 48.2809 266.652 42.416 286.43 42.416C306.208 42.416 325.542 48.2809 341.987 59.269C358.432 70.257 371.249 85.8748 378.818 104.147C386.386 122.42 388.367 142.526 384.508 161.924C380.65 181.322 371.126 199.14 357.14 213.125L286.43 142.415L215.72 213.125Z" fill="#E2B100"/>
<circle cx="286.431" cy="211.915" r="24.9998" fill="#E28800"/>
<path fill-rule="evenodd" clip-rule="evenodd" d="M1.40381 47.416V237.415H53.7055V176.605H63.035L110.813 237.415H176.403L120.143 172.429C168.486 160.681 187.994 47.4126 86.7828 47.416L1.40381 47.416ZM53.7055 135.626V91.7807H90.1753C113.358 98.0443 117.881 127.014 90.1753 135.626H53.7055Z" fill="black" stroke="black"/>
<path d="M406.403 236.915V46.916H453.824L493.663 139.397L533.502 46.916H581.402V236.915H533.502V180.555L537.092 143.572H534.644L510.435 208.539H477.99L453.781 143.572H451.333L454.923 180.555V236.915H406.403Z" fill="black" stroke="black"/>
</svg>
